<?xml version="1.0" encoding="UTF-8"?>
<svg id="Isolation_Mode" data-name="Isolation Mode" xmlns="http://www.w3.org/2000/svg" viewBox="0 0 550.70 163.67">
  <defs>
    <style>
      .cls-1, .cls-2 {
        fill: #b5c6bd;
        stroke: #b5c6bd;
        stroke-miterlimit: 10;
      }

      .cls-3 {
        fill: #141e19;
      }

      .cls-2 {
        stroke-width: 2px;
      }

      .cls-4 {
        fill: #23302a;
      }
    </style>
  </defs>
  <path class="cls-1" d="M65.73,91.86l-1.34,2.36c-.4,1.08-.66,2.2-1,3.33-.08,15.88,6.89,31.49,18.62,41.83,3.55,1.35,5.57,4.67,9.29,6.81,1.13.64,2.14,1.34,3.14,1.92,1.01.56,3.29-.33,4.14.25.42.29.83.59,1.22.89.39.3.79.54,1.15.82.74.54,1.4,1.11,1.99,1.69,1.79.66,3.67,1.01,5.53,1.42l1.4.3.7.14.71.09,2.84.32c2.21.32,4.45.19,6.67.24.67.05,1.35.03,2.01,0l2.02-.09,2.03-.1c.67-.05,1.34-.18,2.01-.26,3.38-.66,6.67-1.69,9.83-2.96l3.53-1.23c1.16-.46,2.27-1.02,3.42-1.53l1.42-.88c.47-.29.9-.65,1.36-.98l2.65-2c1.31-.52,2.51-1.27,3.75-2.02.6-.4,1.24-.76,1.8-1.24.56-.47,1.12-.96,1.66-1.47.72-.69,1.48-1.35,2.17-2.07l1.99-2.24c1.39-1.46,2.5-3.12,3.69-4.74.34-.47.67-.92.99-1.4l.86-1.48,1.72-2.96c.52-1.02.96-2.07,1.44-3.11.45-1.04,1-2.06,1.32-3.15l.53-3.77.13-.93.04-.94.08-1.88c.22-.84.41-1.61.6-2.32.21-.71.25-1.39.38-1.99.21-1.21.4-2.17.58-2.9l.28-1.08c.08-.36.16-.73.25-1.09.18-.73.41-1.46.68-2.21-.09-1.12-.17-2.23-.41-3.33-.36-.16-.73-.51-1.1-1.03-.37-.52-.67-1.26-.9-2.22-.21-.97-.69-2.22-1.14-3.75.32-6.39-1.23-12.44-3.9-17.3-2.25-3.71-4.68-7.34-7.7-10.48-4.46-4.94-9.82-9.09-15.75-12.16-2.25-.9-4.05-.94-5.33-.11-1.94-.67-3.51-1.26-4.72-1.73-1.22-.45-2.11-.68-2.6-.95-1-.48-1.58-1.23-1.76-2.22-1.05-.22-2.13-.25-3.19-.34l-3.19-.22c-2.86-.18-5.73-.44-8.61-.2l-2.5.22c-.82.12-1.64.29-2.47.44l-2.46.46c-.83.13-1.61.43-2.42.64l-3.2.72c-1.05.31-2.08.67-3.12,1.01-2.11.61-4.09,1.57-6.12,2.45-.37.2-.76.36-1.12.58l-1.08.66c-1.26.83-2.55,1.58-3.75,2.47l-3.54,2.78c-.87.78-1.67,1.64-2.49,2.46-.82.84-1.66,1.64-2.37,2.56-1.53,1.57-3.11,3.1-4.42,4.87-.68.87-1.39,1.71-2.05,2.6l-1.81,2.78,1.66-1.88c5.46-4.44,8.8-3.63,8.95.24.55-.13,1.06-.28,1.64-.38,2.64-4.07,5.97-7.75,9.8-10.98l2.97-.99c.48-.18.99-.3,1.49-.4l1.5-.34c5.06-2.79,10.68-4.68,16.51-5.5l3.5-.2,3.49.14c1.03-.08,2.05.02,3.07.09,1.02.07,2.06.12,3.09.21l3.06.52,1.54.27c.51.09,1.01.27,1.51.39l3.34,1.19c1.08.48,2.13,1.01,3.2,1.5l-.3,1.72c2.9,1.51,8.51,3.85,15.14,9.81,1.38,1.15,2.46,2.56,3.69,3.88.64.89,1.04,1.88,1.53,2.75.45.89.93,1.7,1.28,2.53.65,1.68,1.34,3.12,1.79,4.45.42,1.34.79,2.49,1.12,3.45.31.96.45,1.78.64,2.39l.24.43c.33,1.08.68,2.17.85,3.29l.65,3.35c.18,2.26.54,4.52.42,6.81,0,6.71-1.47,13.45-4.23,19.62-2.39,4.56-5.39,8.79-9.09,12.31-4.68,5.66-10.85,10.18-17.74,13.26l-1.46.27c-.49.06-.99.09-1.49.14l-2.93.24c-.89.24-1.81.34-2.71.52-.91.14-1.81.37-2.73.43-6.88.59-13.81-.34-20.24-2.62-8.67-2.85-16.37-8.3-22.02-15.35-3.76-4.84-6.56-10.4-8.19-16.25l-.95-2.95c-.28-.99-.45-2.02-.68-3.03l-.34-1.52c-.1-.51-.12-1.03-.19-1.54l-.36-3.1c.04-.88.11-1.77.17-2.65.08-.88.06-1.76.22-2.63l.44-3.61.22-1.3c.07-.43.23-.85.33-1.28h.44c-2.02,3.48-3.78,7.27-5.4,8.93-1.68,1.66-3.42,2.19-5.07,1.03"/>
  <g>
    <path class="cls-4" d="M104.52,62.44c.22.47.55,2.13.07,2.05l-2.63-.42-1.06-.16-4.04-.78-1.16-.1-4.29-1.05c-.17-.04-.88-.39-1.03-.47l-.86-.45-1.79-.95-.93-.49-1.12-.65-1.42-1.06-1.17-.98c-.53-.45-1.34-1.8-1.52-2.46l-.41-1.54-.27-1.02-.32-1.18-.1-.89-.17-1.17-.14-1.29-.08-1.41.02-1.29.12-1.34.16-1.3.23-1.97,1.65,1.74,1.03,1.09.79.67.85.62,1.17.86.89.65,1.05.68.91.53.89.52.96.56,1.1.59,1.19.57,1.33.63,1.81.59,3.43.93c.22.06.81,1,.89,1.22l.5,1.28.4,1.01,1.02,2.47.34.87.37,1.02.27.74.47,1.3.59,1.25Z"/>
    <path class="cls-4" d="M105.74,51l-.79,1.76-.54,1.21-.63,1.42c.15.13-.71-.45-.8-.62l-.83-1.65-1.57-3.12-.39-1.05-.4-1.06-.79-1.51-.68-1.19-.95-1.55c-.44-.71-.63-1.56-.47-2.31l.53-2.49.07-1.04.05-1.32.06-1.3-.04-1.05-.06-1.39-.02-.99v-1.36s-.03-1.38-.03-1.38v-1.3c-.01-.2-.07-.99.1-.91l1.25.59,1.2.58,1.15.57,1.23.66,1.26.69,1.4.76.94.64.81.66.85.7c.27.22.83,1.04.86,1.37l.08,1.07v1.04s-.03,1.02-.03,1.02l-.18,1.91-.12,1.34-.15.98-.2,1.25-.42,2.6-.2.92-.3,1.02-.72,2.46-.52,1.32Z"/>
    <path class="cls-4" d="M109.44,69.28c-.16.27-.85-.24-.93-.45l-.41-1.03-.64-1.69-.37-.96-.98-2.44-.32-.96-.31-.96-.51-1.26-.4-1.02-.46-1.16c-.06-.16.12-.9.2-1.06l.48-.91.64-1.19.46-.91.53-1.19.4-.95.83-2.42.41-1.04.83-3.94.34-2.39.14-.95.08-.89.02-1.22.59-2.64,2.45,4.1c.11.18.41.97.45,1.15l.27,1.1.36,1.46.36,1.47.16.95.15,1.06.14,1,.16,1.1.14,1,.19,1.5.17,1.27c.02.17.3,1.05.26,1.22l-1.16,4.62-.51,1.31-.46,1.2-.37.98-.67,1.78-.44.88-.47.94-.62,1.47-.46.89-.71,1.2Z"/>
    <path class="cls-4" d="M94.94,48.56l-1.28-.54-2.05-.86-.9-.51-1.14-.64-.84-.52-1.23-.87-.83-.58-1.16-.81-.77-.59-.86-.86-1.16-1.15-.76-.76c-.81-.8-1.16-1.8-.87-2.74l.57-1.91.25-.82.35-1.05.89-2.7c.05-.16.54-1.12.69-1.07l1.57.55,1.19.57,1.2.58.89.43,1.2.58c.18.09.74.61.8.81l.36,1.15,1.58,3.03,2.09,3.7.57.95,1.1,1.79.54,1.22.44,1.12,1.66,3.11c.13.24-.64.86-.89.75l-1.06-.46-2.11-.9Z"/>
    <path class="cls-3" d="M1.13,57.69l.53.32.61.37c.08.05.48.41.53.5l.48.8.48.79.47.78.37.86.31.73.25.58.74,1.74.32.65.42.8.26.73,1.63,2.63,2.17,3.51c.06.1.46.59.52.64l.82.71.49.43.98.86.72.58.86.62.6.31.57.29.63.32.66.33.83.41.64.18.63.18.94.27.95.21,2.26.42,1.3.12,1.62.12,1.03.07,1.98.15.87.04,1.11.02h.68s.64.02.64.02l.66-.05,1.35-.17,1.16-.14,1.01-.12.57-.11.84-.22,1.44-.37,1.04-.27,1.08-.27,1.12-.26.65-.15.63-.15,1.2-.28.64-.15,1.49-.34,1.03-.2,1.04-.16,1.03-.16.63-.1.8-.13.66-.11.81-.14.9-.03,1.05-.04.71-.07,1.24.25,1.91.55,1.25.45.85.19.75.15.93.31.63.21,1.52.51c.17.06.6.79.43.59l-1.55.08-1.09.06-.65.03-.99.05-1.02.12-1.1.2c-.15.03-.71.11-.78.15l-3.81,2.17-1.19.94c-.09.07-.74.35-.85.36l-1.22.17-1.44.2-.75.08-1.74.15h-.97s-1.65.02-1.65.02l-1.43.03-.99.02-.64.14-1.09.28-.8.21-.95.28-.77.4-.82.46-.79.66-.63.52-1.37,1.15-.49.5-.78,1.11-1.02,1.45-.64,1.22c-.15.29-.34,1.18-.37,1.51l-.11,1.67-.07,1.06c-.01.16-.05.78.03.9l.5.73c.04.06.47.4.54.41l2.18.47,1.55.28,1.1.15,1.25.17h.59s1.1-.06,1.1-.06l.98-.06.81-.17.98-.2c.28-.06,1.19-.39,1.45-.55l3.39-2.08c.13-.08.5-.77.6-.88l.42-.49.77-.91.39-.58.28-.59.28-.57.32-.65.61-1.52.32-.88.33-.95.23-.67.35-.55.38-.6.36-.57.35-.55c.09-.14.48-.86.62-.95l2.98-1.92,2.68-1.41c.16-.08.87-.07,1.06-.08h.68s.95-.03.95-.03l.69-.07.78-.08,1.62-.08,1.06-.06,1.69-.08.7-.04.92.02.73.02c.09,0,.55.18.63.21l.9.43.6.29.93.45,1.77.85.95.66.58.45.47.37.94.75,1.13.9.55.4.51.37.66.49.73.55.59.44.7.52.47.35.6.44.55.4.85.61.79.57.66.5,1.36,1.02.59.45.63.4.49.31.87.55.66.42.58.36.89.55.51.32.58.36.66.44.5.33.62.4.66.36.77.4.98.5.52.25.65.31.53.26.63.26.63.26.61.25.63.25.63.28.85.4.67.31.52.24.64.22.59.2.65.22.64.31.66.32.51.23,1.57.5.93.4.86.39.59.26.91.41.68.3.84.35.94.3.74.31.78.32,1.55.54.57.2.72.29,1.9.74.81.32.92.36.62.24.64.24.57.23.64.19.63.19.6.18.68.27.53.21,1.89.68.64.23,2.14.78.9.33.61.23,1.05.39,1.1.39,1.25.44,1.64.57.84.3,1.57.57.65.23,2.5.9.86.31,1.55.55.62.29.91.4,1.44.65.66.25.89.33,1.9.69.62.27,1.25.56.84.37.68.3.51.24,1,.48.84.4.66.33.52.27.69.35c.64-1.39,1.3-2.77,1.97-4.14-.23-.03-.72-.12-.77-.15l-1.17-.61-.95-.53-2.07-.88-1.56-.67-2.1-.89-1.86-.79-.9-.4-.85-.37-1.9-.71-.85-.32-1.93-.73-.81-.31-2.26-.78-3.13-1.08-.83-.29-.96-.28-.94-.27-1.85-.54-1.22-.49-2.52-.83-.88-.33-1.62-.62-.56-.24-1.84-.61-1.35-.46-2.66-.92c-.17-.06-.98-.36-1.07-.51l-2.56-4.43-.92-1.86-1.23-2.49-.56-1.14-.48-1-1.69-3.49-.34-1.11-.34-.97-.45-1.29-.32-.93-.45-1.28-.31-.96c-.07-.22-.2-.96-.2-1.18l-.02-1.32v-.99s-.03-1.36-.03-1.36l.04-.99.16-1.28.12-.96.32-2.59.29-2.36.11-.93.37-2.32.25-1.6.36-2.24.16-.99.15-.94.22-1.35.16-1.22.12-1.7.13-1.91-.21-1.12-.13-1.36-.11-1.13-.13-1.24-.13-1.03-.22-1.45-.21-1.42-.11-1.32-.36-1.49-.36-1.46-.26-1.06-.29-.94-.64-1.63-.59-1.44-1.37-2.31-1.78-2.46-.79-.77-.81-.74-.76-.66-1.21-.93-.83-.54-1.19-.66-1.17-.65-.96-.65-1.75-.78-1.58-.71-1.43-.52-1.3-.46-1.22-.43-.89-.32-1.22-.46-1.57-.59-1.23-.47-.95-.49-.8-.73-1.35-1.6-.74-.87c-.11-.13-.69-.07-.74.09-.05.16-.11.56-.07.72l.33,1.17c.04.15.09.91.05,1.06l-.64,2.47-.43.91-.66,1.25-.62,1.17-.52.98-.88,2.02-1.28,4.1-.37,1.29-.25,1.12-.29,1.71-.38,2.24-.12.99-.1,1.24v1.39s-.03,1.06-.03,1.06l.03.96.12,1.03.13,1.1.11,1.01.17,1.02.27,1.45.28.96.58,1.62.37,1.01.38,1.06.73,1.59,2.62,4.23,1,1.62c.14.23.72.77.92.96l1.01.97,1.66,1.92.88.87.77.64.86.69.79.63.92.74,1.17.93,1.06.71,1.19.68.9.51.88.5.89.51,1.78,1.03,1.18.65,1.1.6.92.65,1.25.86,1.06.73,1.12.81,1.55,1.26c.13.1.65.67.74.81l1.39,2.17.36,1.16.76,1.97.38.95,1.02,2.03.98,1.94.38.98.41,1.03.66,1.57.68,1.61.61,1.34.81,1.72.38,1.02.26,1.06-1.31-.63-2.2-.74-.91-.31-2.81-.95-1.2-.41-1.54-.54-.96-.41-2.8-.84-.87-.26-.92-.43-.88-.42-1.26-.57-1.22-.55-.87-.43-.99-.52-1.44-.76-.85-.53-.88-.58-.83-.55-1.47-1.02-1.16-.76-.84-.51-.9-.6-.85-.66-.81-.62-.9-.65-1.15-.84-.79-.59-1.16-.87-.82-.6-.9-.62-.81-.58-1.26-1.03-1.03-.79-1.22-.87c-.21-.15-.64-.79-.57-1.04l.3-1.1c.06-.24-.69-.65-.93-.63-1.3.13-1.49.13-2.49-.93l-.86-.91-.74-.77-.92-.96-.69-.75-1.71-2.05-.71-.85-1.06-1.27-.74-.81-1.03-1.1-1.02-1.08-1.45-1.54-.76-.81-.85-.99-.91-1.19-1.85-2.63-.71-1.15-2.38-4.25-.46-.99-.58-1.35-.48-1.18-.55-1.47-.4-1.46-.15-.98c-.23-1.44.13-1.53.4-2.08l.4-.79c.08-.17-.29-.89-.27-1.07l.19-1.98.05-1,.05-1.29.06-1.37.02-1v-1.36s.02-1.04.02-1.04v-1.29c.01-.24.22-1.04.34-1.24l.53-.89.56-.94.65-1.09.65-.9.87-1.18.56-.79.57-.87.61-.93.63-1.15.61-1.49.39-.96.75-2.78.03-1.05.06-1.22-.16-1.14-.16-1.11-.24-.97-.31-1.11-.3-1.08-.38-1-.63-.72-.58-1.31-.95-1.48-.78-.67-1.06-.97-.82-.75-.97-.89c-.16-.15-.56-.52-.64-.67l-.46-.91-.53-1.03c-.3-.6-.88,1.58-1.35,2.07l-1.33,1.38-.66.68-1.5,1.53-1.3,1.32-.69.88-.46.84-.36.77-.25.43-.4,1.55-.42,1.63c-.06.23-.1,1.02-.06,1.26l.24,1.39.14.83.12.71.15.73.3.96.33,1.06.27.86.2.66.91,1.93,1.95,3.15,1.44,2.34,1.65,2.82.56,1.14c.07.15.15.79.16.96l.04.71.03.71.04,1.01.05,1.64c0,.18.03.75.02.75-.01,0-.4.4-.58.6l-.52.53c-.06.06-.16.41-.17.51l-.09.66-.22,1.66-.13.94v.64s0,1.01,0,1.01v1.09s-1.02-1.57-1.02-1.57l-.54-.82-1-1.28-.74-.86-.91-1.06-.48-.56-.41-.49-.82-.97-1.28-1.53c-.2-.23-.48-1.22-.53-1.51l-.17-.99-.2-1.14-.24-1.43-.12-1.02v-.65s.02-1.03.02-1.03l-.04-.66-.11-1.4-.08-1.06-.08-.63-.09-.68-.13-1.01-.2-.75-.3-1.08-.22-.78-.21-.74-.18-.66-.29-1.02c-.06-.22-.37-.91-.5-1.11l-.5-.82-.48-.79-.48-.79-.5-.8-.5-.75-.53-.56-.76-.79-.48-.48-1.14-.97-1.14-.83-1.15-.75-.64-.29-.92-.39-.6-.26-1.8-.62-.67-.37-1.54-.27-.68-.12-1.31-.23-1.89-.33-1.02.04-1.07.07-.99.07c-.08,0-.56-.09-.64-.13l-.65-.29-.56-.39c-.1-.07-.44-.46-.54-.41l-.87.38c-.17.08.22.59.31.81l.53,1.2c.03.07,0,.59,0,.67l-.08.69-.19,1.62-.23,1.98-.09.92-.09,1.04-.05.66-.04.67-.04.65.02.69.09,1.02.06.68.07.69.2.98.23.74.28.91.31.94.98,1.49,1.52,1.84.76.75.94.69,1.35.99.83.61.62.46.87.5.55.31.55.41.61.45c.16.12.71.49.89.55l2.37.86,3.48,1.12.9.34,1.88.72,1.83.69.6.23,1.25.51.68.28.85.35c.09.04.6.29.66.36l.94,1.01.94,1.06.72.83,1.57,2.06.48.62.78.84.78.83,1.76,2.51,1.39,2.31c.09.15.24.83.26,1.01l.08.71.24,1.09.21.6.29.8.3.82.27.58.35.76.58,1.27.74,1.63.42.91.39.85.49.8.49.79.48.76.53.65.42.52.5.64.56.74.56.74.55.73.46.61,1.1,1.07.74.72.63.61.44.43.6.41.84.81.56.71.57.75.44.59.38.5.85,1.12,1.08,1.42.6.78.52.8c.05.08-.56-.03-.66-.06l-.65-.24-1.52-.56-.64-.17-.64-.16-.61-.3-.63-.31-.9-.42-2.76-.92-.9-.3-2.15-.65-.75-.1-1.47-.87-.6-.46-.76-.67-.87-.97-.68-.76-.61-.68-.61-.58-4.35-6.59-.65-.93-1.11-1.36-.84-1-.67-.78-.64-.75-.49-.49-.76-.65-.53-.45-.68-.58-.49-.42-.85-.73-.6-.4-1.04-.67-1.57-1.02-.79-.44-.92-.45-1.54-.76-.65-.29-1.13-.49-.97-.29-4.03-.84-1.41-.14-.66-.06-.97.05-1.06.05-1.39.07-.97.04-.67.03-.76.17-1.08.24-.65.14-1.43.39-.74.2-.99.27-1.2.32-.62.18-1.23.57-2.68,1.6-.83.19-4.48,2.53c-.14.08-1,.12-1.16.07l-.96-.28c-.17-.05-.66-.1-.79.02l-.61.57.57.67.55.33ZM33.42,92.91l.46-.91.43-.84c.08-.16.47-.77.6-.89l1.77-1.6c1.61-1.45,3.58-2.61,4.95-2.03l1.25.53,2.21.72c.17.05.3.74.14.83l-2.01,1.17-1.53.89-.9.43-2.01.76-1.52.45-1.54.37-1.3.47-1.31.52c-.19.07.24-.68.33-.86ZM32.78,95.6l.58-.68c.22-.26,1.08-.69,1.41-.78l1.06-.29,1.07-.3,1.3-.37c.17-.05.65.14.92.24l-1.81,1.81c-.14.14-1,.27-1.18.32l-1.12.34-1.89.58c-.18.05-.46-.74-.33-.89ZM45.44,97.87l-1.71.73-1,.21-1.1.17-1.17.09-1.25.08h-.96s-.94-.11-.94-.11l-3.86-.81c.05-.54.99-1.15,2-1.44l1.08-.32,1.2-.41c.32-.11,1.07-.81,1.3-1.06l.75-.87.69-.81.76-.91.75-.89c.15-.18.95-.66,1.18-.65l1.41.06,1.1-.07.94-.07c.2-.01,1.02-.04.93.14l-.57,1.13-1.01,4.22c-.15.6-.19,1.45-.53,1.59ZM114.58,63.17l-.17,1.22-.32,2.02-.2,1.25-.31,1.98-.13.92-.46,3.26-.14,1.01-.3,2.23-.21,1.57-.85-1.54-.99-2.49-.48-1.38-.37-1.12c-.08-.25.03-1.13.15-1.37l.63-1.16.5-.92.62-1.17.64-1.2.47-.93.59-1.2.43-.87.46-.94c.06-.13.7-.42.68-.28l-.22,1.12ZM97.42,27.73c0-.2-.05-.99.12-.91l1.25.59,1.2.58,1.15.57,1.23.66,1.26.69,1.4.76.94.64.81.66.85.7c.27.22.83,1.04.86,1.37l.08,1.07v1.04s-.03,1.03-.03,1.03l-.18,1.91-.12,1.34-.15.98-.2,1.25-.42,2.6-.2.92-.3,1.02-.72,2.46-.52,1.32-.79,1.76-.54,1.21-.63,1.42c.15.13-.71-.45-.8-.62l-.83-1.65-1.57-3.12-.39-1.05-.4-1.06-.79-1.51-.68-1.19-.95-1.55c-.44-.71-.63-1.56-.47-2.31l.53-2.49.07-1.04.05-1.32.06-1.3-.04-1.05-.06-1.39-.02-.99v-1.36s-.03-1.38-.03-1.38v-1.3ZM88.82,26.24l-.33-.95-.38-1.1c-.07-.2,0-1.1.19-1.01l1.01.5.94.47c.16.08.7.47.66.63l-.57,2.39c-.05.22-.94.66-1.01.47l-.51-1.4ZM90.77,28.79l.79-2.19.47-1.32c.1-.29.93-.03,1.23.07l2.48.85c.21.07.71,1.02.71,1.26l-.06,1.64-.03,1.3v1.44s.02.98.02.98l.04,1.02.04,1.07v1.06s-.09,1.21-.09,1.21l-.08,1.32-.08,1.39c-.48.26-.67.37-.66.36l-.61-1.23-1.9-3.57-1.66-3.12-.53-1.03c-.52-1-.46-1.43-.07-2.52ZM104.57,58.5l-.46-1.16c-.06-.16.12-.9.2-1.06l.48-.91.64-1.19.46-.91.53-1.19.4-.95.83-2.42.41-1.04.83-3.94.34-2.39.14-.95.08-.89.02-1.22.59-2.64,2.45,4.1c.11.18.41.97.45,1.15l.27,1.1.36,1.45.36,1.47.16.95.15,1.06.14,1,.16,1.1.14,1,.19,1.5.17,1.27c.02.17.3,1.05.26,1.22l-1.16,4.62-.51,1.31-.46,1.2-.37.98-.67,1.78-.44.88-.47.94-.62,1.47-.46.89-.71,1.2c-.16.27-.85-.24-.93-.45l-.41-1.03-.64-1.69-.37-.96-.98-2.44-.32-.96-.31-.96-.51-1.26-.4-1.02ZM84.81,27.29l.49-.91.63-1.17.55-1.03c.09-.17.59.46.66.63l.42,1.04.39,1.22.52,1.81c.04.14.25.49.36.68l.47.97s-.38.26-.49.33c.02-.01.03-.02.07-.04l-1.79-.96-.88-.48-.94-.51c-.16-.09-.72-.47-.72-.63,0-.18.16-.8.24-.96ZM81.06,37.12l.57-1.91.25-.82.35-1.05.89-2.7c.05-.16.54-1.12.69-1.07l1.57.55,1.19.57,1.2.58.89.43,1.2.58c.18.09.74.61.8.81l.36,1.15,1.58,3.03,2.09,3.7.57.95,1.1,1.79.54,1.22.44,1.12,1.66,3.11c.13.24-.64.86-.89.75l-1.06-.46-2.11-.9-1.28-.54-2.05-.86-.9-.51-1.14-.64-.84-.52-1.23-.87-.83-.58-1.16-.81-.77-.59-.86-.86-1.16-1.15-.76-.76c-.81-.8-1.16-1.8-.87-2.74ZM81.58,54.47l-.41-1.54-.27-1.02-.32-1.18-.1-.89-.17-1.17-.14-1.29-.08-1.41.02-1.29.12-1.34.16-1.3.23-1.97,1.65,1.74,1.03,1.09.79.67.85.62,1.17.86.89.65,1.05.68.91.53.89.52.96.56,1.1.59,1.19.57,1.33.63,1.81.59,3.43.93c.22.06.81,1,.89,1.22l.5,1.28.4,1.01,1.02,2.47.34.87.37,1.02.27.74.47,1.3.59,1.25c.22.47.55,2.13.07,2.05l-2.63-.42-1.06-.16-4.04-.78-1.16-.1-4.29-1.05c-.17-.04-.88-.39-1.03-.47l-.86-.45-1.79-.95-.93-.49-1.12-.65-1.42-1.06-1.17-.98c-.53-.45-1.34-1.8-1.52-2.46ZM95,70.65l-1.04-.27-.88-.41-.94-.53-1.15-.93-1-.94-.9-1.02-.67-.76-1.62-1.86-1.2-1.41-1.29-1.93-.67-1.12c-.1-.16.76-.11.93,0l1.13.72.93.59.86.5,1.23.62.88.38.96.39,2.15.69.93.22,3.12.66,1.12.06,2.17.43,1.62.32,1,.26,3.02.84c.21.06.67.87.74,1.09l.46,1.37.41,1.16.52,1.44.49,1.36c.09.26.34,1.62.07,1.56l-3.08-.66-5.01-1.29-1.05-.47-4.22-1.08ZM109.07,80.56l-.97-.89-.95-.31-.76-.75-.88-.51-.8-.69-.9-.47-1.21-.63-1.2-.71-.86-.63-1.19-.52-.85-.54-.99-.46-.93-.96,1.25.03.94.29,5.71,1.53.89.3.91.37,3.11.72.48,1.73.12,1.04.27,1.06.22,1,.58,1.62-1.04-.85-.94-.75ZM50.41,90.75l-.31.92-.3.92c-.06.19-.43.91-.54,1.06l-1.04,1.31c-.14.18-.57.42-1.29.84l.63-2.07.51-1.19.52-.97.91-1.52c.14-.23.85-.48,1.37-.65l-.45,1.35ZM51.93,86.29c.03.25-.3,1.39-.51,1.53l-1.47.98-2.28.91-1.54.29c-.15.03-.41-.65-.32-.76l.76-.86.77-.73,1.01-.66,1.51-.89,1.01-.45c.21-.09,1.03.4,1.05.63ZM57.21,27.56l-.82,1.04-.92,1.25-.56.95c-.07.12-.78.32-.8.19-.07-.53-.02-1.75.26-2.11l.65-.85c.12-.16.65-.63.82-.73l1.25-.71,1.06-.61-.94,1.57ZM54.41,6.77l.42-.83c.1-.19-.45-.74-.52-.95l-.39-1.11c-.09-.26,1.08-.86,1.11-.61l.15,1.62s.56-.02,1.28-.04l1.01.92,1.07.97c.22.2.52,1.17.48,1.46l-.13.85c.26-.07,1.12-.26,1.2-.1l.82,1.74.18.95.42,1.53.18,1.06-.02,1.01-.13,1.02c-.02.17-.33.66-.44.82l-.62.89-.47.93c-.18.35-1.05.98-1.4,1.2l-2.43,1.56-1.07.75-.73.56c-.14.11.39.56.51.43l.54-.55c.16-.17.82-.68,1.02-.8l2.38-1.44,1.19-.72c.15-.09.42-.7.52-.86l.7-1.11c.09.62.17,1.08.11,1.28l-.54,2.13c-.08.32-.37,1.1-.54,1.31l-.66.85-.73.86c-.12.14-.6.72-.74.81l-2.51,1.68-.99.81-.59.53-.23-1.4c-.05-.29-.11-1.07-.08-1.34l.24-1.61-.38-1.52-.04-1-.03-1.32-.04-1.68c0-.4-.12-1.33.16-1.55l1.19-.94.68-.67.89-.88c.1-.1-.55-.65-.64-.56l-.91.89c-.14.14-.92.98-.96.78l-.37-1.79c-.03-.16.05-.8.07-.98l.18-1.69.25-2.24.1-1c.02-.17.2-.76.27-.9ZM50.55,27.02l-.61-1.58c-.06-.17.63-.67.73-.73l-1.45-1.51-1.64-2.21c-.14-.19-.53-1.06-.58-1.29l-.34-1.41-.36-1.44-.34-1.41c-.04-.17-.16-.85-.13-1.01l.29-1.64.55-.91-.04-1.72c0-.09.03-.28.07-.33l.63-.74.73-.86.69-.81c.15-.18.79-.69,1.02-.65l1.13.25c.04.1-.24-.6-.37-.9-.14-.33.49-1.23.81-1.56.75-.75,2.29,1.48,2.17,2.63l-.16,1.61-.17,1.73-.83-.31-.54.26,1.07,2.25c.08.18-.03.9-.06,1.09l-.18.96-.14,1.27v1.65s-.14,1.45-.14,1.45l.07,1.59.06,1.31.12,1.09.1,1.05v.93s-.03,1.05-.03,1.05l.03.89.17,1.56c.03.25-.08.93-.14,1.32l-1.49-1.78c-.19-.22-.58-.84-.68-1.11ZM30.55,11.98l-.58-1.48c-.11-.27-.12-1.36-.09-1.35l1.7.57c.16.05.75.33.88.42l.83.6.9.69.92.7.79.6c.25.19.99.82,1.12,1.1l.93,1.99c.1.21,0,.99.04,1.22l.18,1.45c.02.18-.05.94-.11,1.19l-1.28,5.23-.37,1.5c-.07.28-.56,1.17-.78,1.44-.23.28-1.03-.79-1.27-1.05l-.97-1.02-.81-.79-1.71-2.04c-.23-.27-.64-1.28-.57-1.63l.27-1.26.29-1.37.1-1.21-.06-1.37-.04-.96-.05-1.15-.05-1.03c0-.19-.13-.82-.2-1ZM22.98,8.44c0-.15.3-.76.44-.73l2.46.46,1.67.18c.31.03,1.31.79,1.51,1.57l.25,1,.37,1.46.21,1.47.31,1.07.03,1.52-.18,1.48-.05.99-.05.98c-.01.22-.35,1.03-.49.86l-.68-.78-1.13-1.31-1.09-1.65-1.55-2.35-.76-1.15-1.33-2.32.1-1.75-.03-.99ZM19.98,7.61l1.4.15c.27.03.94.68,1,.94.07.35-.22,1.69-.47,1.59-.21-.09-.88-.53-.98-.7l-.74-1.25c-.13-.46-.26-.89-.21-.73ZM18.3,12.3l.39-1.19c.05-.15.67-.03.82.01l2.46.62c.33.08.83,1.12,1,1.41l2.23,3.65-.99-.27-1.27-.55c-.14-.06-.42-.03-1.07.01-.1-.2-.46-.7-.64-.79l-.94-.47-1.16-.58c-.19-.09-.79-.6-.91-.77-.09-.14.02-.91.07-1.07ZM18.33,20.81l-.3-1.23-.02-1.23-.02-1.09-.02-1.36.13-1.36c.02-.25.96.22,1.18.34l1.2.65,1.31.47c.73.55,1.39,1.05,1.82,1.23l1.33.54,1.21.49c.16.06.71.45.77.61l.36.89.8,1.08,1.41,1.91.72,1.1.72,1.42-1.83-.1-6.12-1.4-1.14-.39-1.16-.54c-.15-.07-.83-.19-.95-.3l-1.08-.95c-.11-.1-.25-.53-.31-.8ZM37.85,34.89l-1.84-.68-2.11-.78c-.16-.06-1.07-.37-.91-.42l1.4-.38c.18-.05.14-.76-.04-.75l-1.5.08c-.25.01-1.03-.07-1.28-.12l-2.56-.57-1.61-.36c-.25-.06-.96-.51-1.17-.7l-.82-.75-.83-.69-.85-.57-.84-.58-1.41-1.31c-.81-.75-1.68-2.13-1.99-3.09l1.28.52,1.23.5.92.37,1.23.47,2.79.6h.73s1.98.13,1.98.13l1.37.08c.26.02,1.03.36,1.22.55l1.04,1.08.77.8.78.87.93,1.03.72.8c.19.21.64,1.05.36,1.05h-1.31c-.17,0-.61.55-.71.69l1.19-.1,1.26-.11c.16-.01.94.49,1.06.61l1.34,1.36c.16.16.38.6.76,1.32l-2.59-.94ZM39.37,32.76l-1.8-2.09c-.75-.87-1.27-1.71-.96-2.78l.64-2.19.56-1.23.51-1.56.48-2.55.1-1.31v-1.38c0-.16-.21-.47-.63-1.23l.71-.47.83,1.61.9,1.93.45,1.5.27.94.16,1.01c.03.17.07.94.03,1.11l-.52,2.51-.3,1.64-.25,1.63-.35,1.78c-.05.23-.78,1.06-.82,1.09ZM42.48,33.46l.59,1.67-1.24.08-1.43-1.85.27-1.09.24-.96.21-.93.74-2.3.61,1.49-.11,1.75.12,1v1.13ZM36.4,77.9l-1.61.88-1.74.5-1.05.33-1.32-.11-1.7-.08-1-.06-.94-.06-1.96-.14-1.05-.07-1.06.03-2.47-.73-2.51-.84-.85-.45-1.47-.77,1.35-.42,1.43-.09.99-.23,1.06-.19,1.47-.29,1.43-.31,1.08-.31,1.87-.52.93-.47,2.05-1.04,1.15-.82,1.49-1.06,1.35-.69,1.93.49.88.41,2.87.85,1.15.41,1.69.47,2.69.75-.55.94-3.32,1.77-2.86,1.53-1.37.36ZM50.32,76.26l-1.15.12-1.27.3-1.46.28-1.77.35-1.06.33-1.15.25-1.44.29-1.05.26-1.09.35-.96-.1,5.48-3.52,2.29-1.36,1.74.19,1.23.34,1.3.44,1.96.8-1.62.69ZM46.86,65.01l-.2-1.13-.62-1.14-.15-1.01,1.14,1.63,1.51,2.32,2.37,3.57,1.68,2.09,1,1.15,1.07,1.59-2.43-.34-1.73-.16-.9-.74-.22-1.18-.78-1.56-.23-1.06-.33-.95-.6-1.59-.57-1.49ZM38.54,60.41l-.67-1.69-1.27-2.47-.71-1.22-1.07-1.85c.55.11,1,.18,1.15.27l1.18.72.93.57.84.54,1.15.9.82.64.87.68,1.14.98c.52.45,1.28,1.83,1.51,2.48l.36,1.04.44,1.24.83,2.28.29,1.01,1.04,2.33.15.66.29,1.3.35,1.57c.03.14-.24.65-.22.51l-3.47-.98-.85-.27-.94-.32c-.3-.1-1.3-.5-1.4-.79l-.96-2.73-.23-1.02-.28-1.21-.22-.98-.24-1.09-.33-1.46-.48-1.65ZM19.46,50.79l1.49-.27,1.04-.16,1.01-.04h.99s1.67.13,1.67.13l1.07.07,3.09.64,1.29.3c.16.04.79.47.91.59l.71.69.82.98.88.81,2.33,3.58.32,1.07.57,1.62.28.99.36,1.46.3,1.21.39,1.58.28,1.13.24.96.34,1.21c.07.26.1,1.22-.15,1.12l-1.12-.45-3.39-1.03-1.11-.34-1.06-.33-3.12-.97-.94-.41c-.13-.05-.48-.49-.52-.61l-.42-1.12-.48-1.29-1.13-2.51-1.21-2.14-1.06-1.56-3.14-3.94-.99-.66-1.16-1.14-.8-.91,1.42-.26ZM11.66,53.11l.88-.43,1.29-.48,1.37-.43,1.43-.13.9.55,1.1,1,.77.84.99.5,1.18,1.61,1.07,1.47.69.73.71,1.14.91,1.35.86,1.97.75,1.61,1.03,1.82-2.59-.76-1.55-.77-.85-.35-1.83-.75-1.26-.61-1.76-.78-.93-.51-2.09-.91-2.52-.81-.77-.94-1.9-3.19-.79-1.32,2.92-1.43ZM13.5,61.49l.99.58,1.16.45,1.26.49,1.32.46c.15.05.23.77.08.8l-1.85.38-1.04.15-1.29.08-1.03.08-1.51.13-1.25.04-1.68.05c-.27,0-1.3-.03-1.42-.25l-1.15-2.08c-.08-.15-.02-1.09.12-1.16l1.54-.81,1.75-.58c.26-.09,1.09.06,1.35.16l2.67,1.03ZM5.14,56.74l2.13-1.33c.22-.14,1.17.16,1.3.39l1.53,2.68c.07.13-.63.32-.79.28l-1.12-.31-2.76-.77c-.2-.05-.44-.83-.28-.93ZM4.22,58.37l3.86.97-2.08,1.65-1.41-.98-.37-1.65ZM8.7,66.06l1.63-.03,1.42-.06,1.04-.04,1.72-.06,1-.04,1.04-.03c.37-.01,1.34-.18,1.68-.32l1.65-.68c.31-.13,1.25.13,1.56.28l1.44.69,1.32.64.82.38,1.57.59,2.13.8.91.34,1.8.58c.21.07.59.98.41,1.08l-2.11,1.09-1.28.55-1.07.44-2.66,1.12-1.05.26-1.08.22-1.71.38-2.17.53-1.41.24-.99.05-1.06.06c-.33.02-1.36-.06-1.6-.28l-1.39-1.24c-.17-.15-.86-.87-1-1.09l-2.1-3.41-.82-1.32-.68-1.1c-.13-.21.78-.62,1.04-.62Z"/>
    <path class="cls-4" d="M107.29,69.79l.52,1.44.49,1.36c.09.26.34,1.62.07,1.56l-3.08-.66-5.01-1.29-1.05-.47-4.22-1.08-1.04-.27-.88-.41-.94-.53-1.15-.93-1-.94-.9-1.02-.67-.76-1.62-1.86-1.2-1.41-1.29-1.93-.67-1.12c-.1-.16.76-.11.93,0l1.13.72.93.59.86.5,1.23.62.88.38.96.39,2.15.69.93.22,3.12.66,1.12.06,2.17.43,1.62.32,1,.26,3.02.84c.21.06.67.87.74,1.09l.46,1.37.41,1.16Z"/>
    <path class="cls-3" d="M135.01,84.96l-1.71.47-1.7.75c-.14.06-.58.7-.56.85l.11.92.14,1.14.13,1.04.15.97.26,1.11.48,1.84.34,1.08,1.22,2.45c.26.53.84,1.55,1.18,1.93l1.66,1.87c.14.16.75.63.93.74l.86.5,1.46.79.87.47c.1.05.61.25.72.27l2.47.55,1.21.27.75-.03,1.39-.05.96.02,1.03.05h.97s1.13-.05,1.13-.05l3.65.93c.26.07,1.04.6,1.28.75l.84.56.9.61,1.13.86.8.74c.17.16.78.85.91,1.07l1.56,2.74.6,1.22.34,1.07,1.68,3.43.37.97c.37-.74.74-1.49,1.1-2.23l-1.14-2.44-.59-1.66-.41-1.04-1.21-1.91-1.37-2.16c-.11-.17-.61-.68-.76-.82l-.77-.69-.94-.85-.79-.72-.56-.39-.9-.46c-.24-.13-1-.7-1.14-.93l-1.86-3.13-.72-1.72-.44-1.23-.52-1.47-.47-1.22-1.76-3.29-.8-1.13-.76-.97-.83-.73-.76-.52-1.22-.84-.85-.57-.91-.5-1.16-.5-.94-.39-1.81-.45-1.64-.31c-.25-.05-1.04-.05-1.3,0l-1.12.21-1.12.21ZM139.45,101.19c-.25.08-.85.31-.99.18l-.84-.77-1.1-1.01-1.16-1.32c-.15-.17-.6-.94-.68-1.15l-.64-1.62-.41-1.05-.38-1.19-.22-1.05-.23-1.06-.16-.96-.18-1.13-.18-1.15.64-.38.88,1.07,1.42,1.72.95,1.15c.14.16.68.69.87.78l1.2.6,1.52.64,3.31,1.03c.75.24,1.82,1.65,1.82,1.63l.21,1.01c.03.17.24.68.35.91l.63,1.33c.1.22.39,1.17.14,1.17h-1.17s-1.17-.08-1.17-.08l-1.44-.09c-.17-.01-.96.13-1.13.19l-1.85.61ZM148.33,103.73l-1.06-.03-.9-.06-1.39-.13-.98-.09-1.34-.19-1.6-.6c-.14-.05-.36-.62-.44-.84l1.36-.08,1.09-.06,1.02.02,1.26.09,1.71.25,1.19.24c.17.03.77.8,1.01,1.09.13.15-.71.37-.93.37ZM152.88,103.65l-1.53-.21-.86-.55-1.2-.98-.91-.71-1.26-1.96-.49-1.59,1.98.63.93.73.74.59.95.44,1.11.85,1.37,1.5-.83,1.25ZM149.98,93.56l1.44,2.52c.13.23.4,1.11.47,1.37l.29,1.03c.07.26.04,1.27-.15,1.06l-1.18-1.31c-.57-.63-1.01-1.67-1.06-2.21l-.12-1.38c-.02-.18.2-.78.3-1.07ZM138.45,85.85l1.07.12,1.87.49,1.27.52,1.17.48.95.54,1.13.77.89.61.78.54c.8.55.88,1.21.91,1.99l.07,1.87.06,1.63.06,1.59-1.38-.42c-.37-.11-1.13-.7-1.41-.98l-.93-.95-.73-.66-.86-.7-.78-.61-1.14-1.35-.87-1.06-1.36-1.95-1.37-1.94c-.08-.12.42-.56.58-.55ZM140.61,92.1l-.38.45-1.21-.55c-.24-.11-1.07-.39-1.25-.58l-1.55-1.65-.76-.92-1.11-1.32c-.15-.19-.43-1.13-.19-1.14l1.24-.04c.16,0,.92.2,1.02.32l1.55,1.92.92,1.2,1.71,2.31Z"/>
    <path class="cls-4" d="M38.58,64.47l.39,1.58.28,1.13.24.96.34,1.21c.07.26.1,1.22-.15,1.12l-1.12-.45-3.39-1.03-1.11-.34-1.06-.33-3.12-.97-.94-.41c-.13-.05-.48-.49-.52-.61l-.42-1.13-.48-1.29-1.13-2.51-1.21-2.14-1.06-1.56-3.14-3.94-.99-.66-1.16-1.14-.8-.91,1.42-.26,1.49-.27,1.04-.16,1.01-.04h.99s1.67.13,1.67.13l1.07.07,3.09.64,1.29.3c.16.04.79.47.91.59l.71.69.82.98.88.81,2.33,3.58.32,1.07.57,1.62.28.99.36,1.46.3,1.21Z"/>
    <path class="cls-4" d="M31.42,69.1c.21.07.59.98.41,1.07l-2.11,1.09-1.28.55-1.07.44-2.66,1.12-1.05.26-1.08.22-1.71.38-2.17.53-1.41.24-.99.05-1.06.06c-.33.02-1.36-.06-1.6-.28l-1.39-1.24c-.17-.15-.86-.87-1-1.09l-2.1-3.41-.82-1.32-.68-1.1c-.13-.21.78-.62,1.04-.62l1.63-.03,1.42-.06,1.04-.04,1.72-.06,1-.04,1.04-.03c.37-.01,1.34-.18,1.68-.32l1.65-.68c.31-.13,1.25.13,1.56.28l1.44.69,1.32.64.82.38,1.57.59,2.13.8.91.34,1.8.58Z"/>
    <polygon class="cls-4" points="41.83 72.54 44.51 73.29 43.96 74.23 40.64 76.01 37.78 77.54 36.4 77.9 34.79 78.78 33.05 79.28 32 79.61 30.68 79.51 28.98 79.43 27.97 79.37 27.03 79.31 25.07 79.17 24.02 79.1 22.96 79.13 20.49 78.4 17.98 77.56 17.13 77.11 15.66 76.34 17.02 75.92 18.45 75.82 19.44 75.59 20.5 75.41 21.97 75.11 23.4 74.81 24.47 74.5 26.35 73.98 27.27 73.51 29.32 72.48 30.47 71.66 31.96 70.6 33.31 69.91 35.24 70.4 36.12 70.81 38.99 71.66 40.14 72.07 41.83 72.54"/>
    <path class="cls-4" d="M60.8,21.33c-.08.32-.37,1.1-.54,1.31l-.66.85-.73.86c-.12.14-.6.72-.74.81l-2.51,1.68-.99.81-.59.53-.23-1.4c-.05-.29-.11-1.07-.07-1.34l.24-1.61-.38-1.52-.04-1.01-.03-1.32-.04-1.68c0-.4-.12-1.33.16-1.55l1.19-.94.68-.67.89-.88c.1-.1-.55-.65-.64-.56l-.91.89c-.14.14-.92.98-.96.78l-.37-1.79c-.03-.16.05-.8.07-.98l.18-1.69.25-2.24.1-1c.02-.17.2-.76.27-.9l.42-.83c.1-.19-.45-.74-.52-.95l-.39-1.11c-.09-.26,1.08-.86,1.11-.61l.15,1.62s.56-.02,1.28-.04l1.01.92,1.07.97c.22.2.52,1.17.48,1.46l-.13.85c.26-.08,1.12-.26,1.2-.1l.82,1.74.18.95.42,1.53.18,1.06-.02,1.01-.13,1.02c-.02.17-.33.66-.44.82l-.62.89-.47.93c-.18.35-1.05.98-1.4,1.2l-2.43,1.56-1.07.75-.73.56c-.14.11.38.56.51.43l.54-.55c.16-.17.82-.68,1.02-.8l2.38-1.44,1.19-.72c.15-.09.42-.7.52-.86l.7-1.11c.09.62.17,1.08.11,1.28l-.54,2.13Z"/>
    <polygon class="cls-4" points="24.94 60.83 25.81 62.8 26.56 64.41 27.59 66.23 25 65.47 23.45 64.7 22.59 64.35 20.76 63.6 19.5 62.99 17.74 62.21 16.82 61.7 14.72 60.79 12.2 59.98 11.43 59.05 9.53 55.86 8.74 54.55 11.66 53.11 12.54 52.68 13.83 52.2 15.2 51.77 16.63 51.64 17.53 52.19 18.62 53.19 19.39 54.03 20.38 54.54 21.56 56.15 22.63 57.61 23.32 58.34 24.03 59.48 24.94 60.83"/>
    <path class="cls-4" d="M36.41,26.41c-.07.28-.56,1.17-.78,1.44s-1.03-.79-1.27-1.05l-.97-1.02-.81-.79-1.71-2.04c-.23-.27-.64-1.28-.57-1.63l.27-1.26.29-1.37.1-1.21-.06-1.37-.04-.96-.05-1.15-.05-1.03c0-.19-.13-.82-.2-1l-.58-1.48c-.11-.27-.12-1.36-.09-1.35l1.7.57c.16.05.75.33.88.42l.83.6.9.69.92.7.79.6c.25.19.99.82,1.12,1.1l.93,1.99c.1.21,0,.99.04,1.22l.18,1.45c.02.18-.05.94-.11,1.19l-1.28,5.23-.37,1.5Z"/>
    <path class="cls-4" d="M47.82,70.83l.35,1.57c.03.14-.24.65-.22.51l-3.47-.98-.85-.27-.94-.32c-.3-.1-1.3-.5-1.4-.79l-.96-2.73-.23-1.02-.28-1.21-.22-.98-.24-1.09-.33-1.46-.48-1.65-.67-1.69-1.27-2.47-.71-1.22-1.07-1.85c.55.11,1,.18,1.15.27l1.18.72.93.57.84.54,1.15.9.82.64.87.68,1.14.98c.52.45,1.28,1.83,1.51,2.48l.36,1.04.44,1.24.83,2.28.29,1.01,1.04,2.33.15.66.29,1.3Z"/>
    <path class="cls-4" d="M143.87,100.48l-1.44-.09c-.17-.01-.96.13-1.13.19l-1.85.61c-.25.08-.85.31-.99.18l-.84-.77-1.1-1.01-1.16-1.32c-.15-.17-.6-.94-.68-1.15l-.64-1.62-.41-1.05-.38-1.19-.22-1.05-.23-1.06-.16-.96-.18-1.13-.18-1.15.64-.38.88,1.07,1.42,1.72.95,1.15c.14.16.68.69.87.78l1.2.6,1.52.64,3.31,1.03c.75.24,1.82,1.65,1.82,1.63l.21,1.02c.03.17.24.68.35.91l.63,1.33c.1.22.39,1.17.14,1.17h-1.17s-1.17-.08-1.17-.08Z"/>
    <path class="cls-4" d="M96.45,35.98l-.08,1.21-.08,1.32-.08,1.39c-.48.26-.67.37-.66.36l-.61-1.23-1.9-3.57-1.66-3.12-.53-1.03c-.52-1-.46-1.43-.07-2.52l.79-2.19.47-1.32c.1-.29.93-.03,1.23.07l2.48.85c.21.07.71,1.02.71,1.26l-.06,1.64-.03,1.3v1.44s.02.98.02.98l.04,1.02.04,1.07v1.06Z"/>
    <path class="cls-4" d="M22.98,23.77l-1.14-.39-1.16-.54c-.15-.07-.83-.19-.95-.3l-1.08-.95c-.11-.1-.25-.53-.31-.8l-.3-1.23-.02-1.23-.02-1.09-.02-1.36.13-1.36c.02-.25.96.22,1.18.34l1.2.65,1.43.51c-.03-.11-.47-.75-.67-.85l-.94-.47-1.16-.58c-.19-.09-.79-.6-.91-.77-.09-.14.02-.91.07-1.07l.39-1.19c.05-.14.67-.03.82.01l2.46.62c.33.08.83,1.12,1,1.41l2.23,3.65-.99-.27-1.27-.55c-.15-.06-.44-.03-1.18.02.73.56,1.4,1.07,1.83,1.24l1.33.54,1.21.49c.16.06.71.45.77.61l.36.89.8,1.08,1.41,1.91.72,1.1.72,1.42-1.83-.1-6.12-1.4Z"/>
    <path class="cls-4" d="M37.28,32.53c.16-.01.94.49,1.06.61l1.34,1.36c.16.16.38.6.76,1.32l-2.59-.94-1.84-.68-2.11-.78c-.16-.06-1.07-.37-.91-.42l1.4-.38c.18-.05.14-.76-.04-.75l-1.5.08c-.25.01-1.03-.07-1.28-.12l-2.56-.57-1.61-.36c-.25-.06-.96-.51-1.17-.7l-.82-.75-.83-.69-.85-.57-.84-.58-1.41-1.31c-.81-.75-1.68-2.13-1.99-3.09l1.28.52,1.23.5.92.37,1.23.47,2.79.6h.73s1.98.13,1.98.13l1.37.08c.26.02,1.03.36,1.21.55l1.04,1.08.77.8.78.87.93,1.03.72.8c.19.21.64,1.05.36,1.05h-1.31c-.17,0-.61.55-.71.69l1.19-.1,1.26-.11Z"/>
    <path class="cls-4" d="M40.47,99.08l-1.25.08h-.96s-.94-.11-.94-.11l-3.86-.81c.05-.54.99-1.15,2-1.44l1.08-.32,1.2-.41c.32-.11,1.07-.81,1.3-1.06l.75-.87.69-.81.76-.91.75-.89c.15-.18.95-.66,1.18-.65l1.41.06,1.1-.07.94-.07c.2-.01,1.02-.04.93.14l-.57,1.13-1.01,4.22c-.15.6-.19,1.45-.53,1.59l-1.71.73-1,.21-1.1.17-1.17.09Z"/>
    <path class="cls-4" d="M30.23,16.43l-.18,1.48-.05.99-.05.98c-.01.22-.35,1.03-.49.86l-.68-.78-1.13-1.31-1.09-1.65-1.55-2.35-.76-1.15-1.33-2.32.1-1.75-.03-.99c0-.15.3-.76.44-.73l2.46.46,1.67.18c.31.03,1.31.79,1.51,1.57l.25,1,.37,1.46.21,1.47.31,1.07.03,1.52Z"/>
    <polygon class="cls-4" points="109.07 80.56 108.1 79.67 107.15 79.36 106.39 78.61 105.52 78.1 104.72 77.41 103.81 76.94 102.61 76.31 101.41 75.6 100.54 74.96 99.36 74.44 98.5 73.89 97.51 73.44 96.58 72.48 97.83 72.51 98.77 72.81 104.48 74.33 105.36 74.63 106.27 75 109.38 75.72 109.87 77.45 109.98 78.49 110.25 79.54 110.48 80.54 111.06 82.16 110.01 81.31 109.07 80.56"/>
    <path class="cls-4" d="M111.48,77.08l-.99-2.49-.48-1.38-.37-1.12c-.08-.25.03-1.13.15-1.37l.63-1.16.5-.92.62-1.17.64-1.2.47-.93.59-1.2.43-.87.46-.94c.06-.13.7-.42.68-.28l-.22,1.12-.17,1.22-.32,2.02-.2,1.25-.31,1.98-.13.92-.46,3.26-.14,1.01-.3,2.23-.21,1.57-.85-1.54Z"/>
    <path class="cls-4" d="M148.57,93.79l.06,1.63.06,1.59-1.38-.42c-.37-.11-1.13-.7-1.41-.98l-.93-.95-.73-.66-.86-.7-.78-.61-1.14-1.35-.87-1.06-1.36-1.95-1.37-1.94c-.08-.12.42-.56.58-.55l1.07.12,1.87.49,1.27.52,1.17.48.95.54,1.13.77.89.61.78.54c.8.55.88,1.21.91,1.99l.07,1.87Z"/>
    <path class="cls-4" d="M40.19,31.67c-.05.23-.78,1.06-.82,1.09l-1.8-2.09c-.75-.87-1.27-1.71-.96-2.78l.64-2.19.56-1.23.51-1.56.48-2.55.1-1.31v-1.38c0-.16-.21-.47-.63-1.23l.71-.47.83,1.61.9,1.93.45,1.5.27.94.16,1.01c.03.17.07.94.03,1.11l-.52,2.51-.3,1.64-.25,1.63-.35,1.78Z"/>
    <path class="cls-4" d="M18.3,64.27l-1.85.38-1.04.15-1.29.08-1.03.08-1.51.13-1.25.04-1.68.05c-.27,0-1.3-.03-1.42-.25l-1.15-2.08c-.08-.15-.02-1.09.12-1.16l1.54-.81,1.75-.58c.26-.09,1.09.06,1.35.16l2.67,1.03.99.58,1.16.45,1.26.49,1.32.46c.15.05.23.77.08.8Z"/>
    <path class="cls-4" d="M88.89,30.82l-1.79-.96-.88-.48-.94-.51c-.16-.09-.72-.47-.72-.63,0-.18.16-.8.24-.96l.49-.91.63-1.17.55-1.03c.09-.17.59.46.66.63l.42,1.04.39,1.22.52,1.81c.04.14.25.49.36.68l.47.97s-.79.53-.42.28Z"/>
    <path class="cls-4" d="M38.77,91.98l-1.52.45-1.54.37-1.3.46-1.31.52c-.19.07.24-.68.33-.86l.46-.91.43-.84c.08-.16.47-.77.6-.89l1.77-1.6c1.61-1.45,3.58-2.61,4.95-2.03l1.25.53,2.21.72c.17.05.3.74.14.83l-2.01,1.17-1.53.89-.9.43-2.01.76Z"/>
    <polygon class="cls-4" points="49.16 76.39 47.89 76.68 46.43 76.97 44.66 77.31 43.6 77.64 42.45 77.89 41.02 78.18 39.97 78.44 38.88 78.79 37.92 78.69 43.4 75.17 45.69 73.8 47.44 73.99 48.67 74.34 49.97 74.78 51.93 75.58 50.32 76.26 49.16 76.39"/>
    <polygon class="cls-4" points="50.48 73.58 49.58 72.84 49.37 71.67 48.59 70.1 48.35 69.05 48.02 68.09 47.42 66.5 46.86 65.01 46.66 63.88 46.03 62.74 45.88 61.74 47.02 63.36 48.53 65.68 50.9 69.25 52.58 71.33 53.58 72.48 54.64 74.07 52.21 73.74 50.48 73.58"/>
    <polygon class="cls-4" points="153.71 102.4 152.88 103.65 151.35 103.44 150.48 102.89 149.28 101.91 148.37 101.2 147.12 99.24 146.63 97.65 148.61 98.28 149.53 99.01 150.27 99.61 151.22 100.05 152.33 100.9 153.71 102.4"/>
    <path class="cls-4" d="M140.61,92.1l-.38.45-1.21-.55c-.24-.11-1.07-.39-1.25-.58l-1.55-1.65-.76-.92-1.11-1.32c-.15-.19-.43-1.13-.19-1.14l1.24-.04c.16,0,.92.2,1.02.32l1.55,1.92.92,1.2,1.71,2.31Z"/>
    <path class="cls-4" d="M51.42,87.82l-1.47.98-2.28.91-1.54.29c-.15.03-.41-.65-.32-.76l.76-.86.77-.73,1.01-.66,1.51-.89,1.01-.45c.21-.09,1.03.4,1.05.63.03.25-.3,1.39-.51,1.53Z"/>
    <path class="cls-4" d="M149.27,103.36c.13.15-.71.37-.93.37l-1.06-.03-.9-.06-1.39-.13-.98-.09-1.34-.19-1.6-.6c-.14-.05-.36-.62-.44-.84l1.36-.08,1.09-.06,1.02.02,1.26.09,1.71.25,1.19.24c.17.03.77.8,1.01,1.09Z"/>
    <path class="cls-4" d="M90.34,27.16c-.05.22-.94.66-1.01.47l-.51-1.4-.33-.95-.38-1.1c-.07-.2,0-1.1.19-1.01l1.01.5.94.47c.16.08.7.47.66.63l-.57,2.39Z"/>
    <polygon class="cls-4" points="43.07 35.13 41.83 35.21 40.4 33.36 40.67 32.27 40.91 31.32 41.12 30.39 41.85 28.09 42.46 29.58 42.35 31.33 42.47 32.33 42.48 33.46 43.07 35.13"/>
    <path class="cls-4" d="M10.1,58.48c.07.13-.63.32-.79.28l-1.12-.31-2.76-.77c-.2-.05-.44-.83-.28-.93l2.13-1.33c.22-.14,1.17.16,1.3.39l1.53,2.68Z"/>
    <path class="cls-4" d="M39.11,93.43l-1.81,1.81c-.14.14-1,.27-1.18.32l-1.12.34-1.89.58c-.18.05-.46-.74-.33-.89l.58-.68c.22-.26,1.08-.69,1.41-.78l1.06-.29,1.07-.3,1.3-.37c.17-.05.65.14.92.24Z"/>
    <path class="cls-4" d="M49.25,93.64l-1.04,1.31c-.14.18-.57.42-1.29.84l.63-2.07.51-1.19.52-.97.91-1.52c.14-.23.85-.48,1.37-.65l-.45,1.35-.31.92-.3.92c-.06.19-.43.91-.54,1.06Z"/>
    <path class="cls-4" d="M56.39,28.6l-.92,1.25-.56.95c-.07.12-.78.32-.8.19-.07-.53-.02-1.75.26-2.11l.65-.85c.12-.16.65-.63.82-.73l1.25-.71,1.06-.61-.94,1.57-.82,1.04Z"/>
    <path class="cls-4" d="M152.04,99.53l-1.18-1.31c-.57-.63-1.01-1.67-1.06-2.21l-.12-1.38c-.01-.18.2-.78.3-1.07l1.44,2.52c.13.23.4,1.11.47,1.37l.29,1.03c.07.26.04,1.27-.15,1.06Z"/>
    <polygon class="cls-4" points="6 61 4.59 60.02 4.22 58.37 8.08 59.35 6 61"/>
    <path class="cls-4" d="M22.38,8.71c.07.35-.22,1.69-.47,1.59-.21-.09-.88-.53-.98-.7l-.74-1.25c-.13-.46-.26-.89-.21-.73l1.4.15c.27.03.94.68,1,.94Z"/>
    <polygon class="cls-4" points="50.49 17.66 49.63 17.23 49 16.92 47.31 13.96 48.56 14.23 50.49 17.66"/>
  </g>
  <path class="cls-2" d="M249.14,80.37l-.69.53-.95,1.64-3.05,1.18-1.41.91c-.3.15-.61.23-.91.23h-.08l-2.21-.38-5.14-.15-3.58-.38-3.43.23-1.33-.23-.53.08-.42,1.79.19.95.08,1.22v.34l-.42,1.79.08,1.37-.15,1.18.23.88c-.61.05-1,.15-1.16.3s-.26.52-.29,1.1c.84.13,1.29.36,1.37.69l-.15,2.74v1.79c0,.76-.5,1.59-1.49,2.48.13.23.24.41.34.55s.26.25.48.32c.21.08.44.13.67.15l.23.46c-.33.2-.55.41-.67.61-.12.2-.2.55-.25,1.03l.91,1.03v3.5c0,.41-.18.8-.53,1.18l.38.91-.15,1.03.3,1.41-.15,1.1.08.91.08,1.56c-.96.41-1.45.98-1.45,1.71,0,.61.46,1.16,1.37,1.64l.57,6.4-.57.46-.69.34-2.02,1.71-.72.08h-.53l-.46.53c-.3-.2-.55-.3-.72-.3l-.46.15-.46-1.03c.05-.15.08-.27.09-.36s.03-.17.06-.25l.3-1.71-.3-2.02.3-2.97.23-4.38.38-3.28v-.88l.72-.91-.95-3.5.38-2.44-.23-3.2-.15-2.17-.08-.08c0-.41.24-1.29.72-2.67l-.27-.84c-.56-1.4-.84-2.36-.84-2.89v-.08l.08-1.1-.46-1.94.08-1.1-.5-2.78-.15-.95,1.18-2.32c.53-.3.8-.6.8-.88,0-.25-.03-.46-.08-.61l-2.13-.42h-.69l-.8-.08-1.71-.69-3.43.3-5.22-.53-5.64.3-.91-.15c-.63.74-1.21,1.1-1.71,1.1h-.23l-1.1-.15-1.1-.19c.03-.76.12-1.3.29-1.62s.46-.65.9-1.01l2.82-2.21c.79-.36,1.89-.53,3.31-.53h1.03c.3.74.72,1.1,1.26,1.1s1.1-.29,1.79-.88l1.71.15,3.35,1.1,2.82-.15,2.21.53,4.42.23,1.87,1.03.88.08.08-.3.95.08c1.6.13,2.6.23,2.99.3s.79.29,1.2.65l1.33.3.69-.5,1.26-.08,1.64-.69,2.82.08,1.87-.38c.79.25,1.43.38,1.94.38,2.46,0,4.84-.57,7.12-1.71l.46.23.23.88-.02.04Z"/>
  <path class="cls-2" d="M296.81,100.69l-.57.15c-.18,0-.48-.13-.91-.38l.91-.53-.61-1.03-1.26-.76-2.17-2.13-4.46-.3-1.71-.23-.84.84-.8.57h-.91c-.18-.96-.62-1.48-1.33-1.56l-1.79.23-1.49.3-2.44.95-.61-.3-5.79,4.33-.38-.23-.08-.53.46-6.31-.23-.95.15-1.41-.38-1.63.38-1.14.08-.49-.15-.46-.38-3.19v-.08l.53-.95v-.23c0-.43-.42-1.13-1.26-2.09v-.84l.95-1.9-.04-1.26c-.65.33-1.34.59-2.02.76-.75.58-1.63.88-2.52.94l.05.06-.15.76-.46,1.18.3,4.45v2.93c.08.33.44.67,1.1,1.03,0,.66.2,1.1.61,1.33l-.76.76h-.5l-.23,1.41v8.74c0,.61.05,1.05.15,1.33.1.28.34.61.72.99l.53-.53.15.84-1.56,2.74.15,3.5-.46,11.29c0,.36.29.93.88,1.71l-.19.87-.84,1.37v1.56l-.46,1.71-.08,1.48.23.15.38.87c.46-.1,1.1-.52,1.94-1.25l.72-.61c.51,0,.84-.02.99-.08l.72-.38.38-.08.38.08.53-1.03-.15-3.5.34-.72v-.46l-.19-1.18-.15-1.79-.3-3.27s-.03-.08-.08-.08l-1.1-1.48-.15-.76h.5l.23-.3.53.15-.08-.42.46-5.82-.53-2.36.8-.99,1.22-1.41.95-.87,1.64-.61,2.02-1.18c.66-.3,1.38-.53,2.17-.68l1.64-.08,3.12-.08,2.36.3,1.41-.08,2.09,1.18,1.41.46c.28.08.51.33.69.76l.57,1.25.38.72-.38,1.48.3,2.85v.3c0,.74-.1,1.42-.3,2.05-.33.96-.5,1.76-.5,2.39,0,.51.32.9.95,1.18,0,1.24-.08,2.23-.23,2.96l-.88,3.42.57,3.12-1.41,4.18-.23,1.03,1.56,1.33.76-.46,2.32-1.25,1.03-.08c.99-.08,1.49-.47,1.49-1.18v-.87l.08-2.47-.46-2.81-.15-1.18.69-.76v-6.31l-1.1-1.1,1.03-1.56-.61-1.44c.51-.53.81-.93.89-1.18.09-.25.15-.87.17-1.86l.08-2.51c0-1.37-.36-2.48-1.07-3.34l.05.03Z"/>
  <path class="cls-2" d="M344.21,97.81c0,.13-.05.24-.15.34l-2.17,1.71-1.18,1.22-.69.27-1.03-.65-.69-.69-2.29-.08-2.17-.88-.84-.23c-.33.56-.67.91-1.03,1.05s-1.08.21-2.17.21l-1.26.53-.95-.3-.76.61-3.05,2.36c-.51.66-.8,1.88-.88,3.66l-.08,2.89-.84.53c.51.86.76,1.7.76,2.51h.57l.08,1.07.15,4.91.08,2.59-.15,2.32c-.79.46-1.18.83-1.18,1.1,0,.05.1.28.3.69l1.03-.23-.08.34.3,1.52v.19c0,.38-.2.78-.61,1.18-.41.41-.83.63-1.26.69l-1.49.15-2.25,1.18-.95-.57.15-.76.53-2.21-.23-2.93.23-.42h.8v-.46l-.08-.69-.46-1.1-.11-1.56-.3-1.33v-1.1l.08-1.22c.1-.13.21-.26.32-.4.12-.14.27-.35.46-.63s.4-.62.63-1.03l.38-.91-.08-.38c-1.19,0-1.79-.27-1.79-.8l.15-2.89-.23-2.86c.08-.25.24-.5.5-.72v-1.1l-.5-.46-.15-.91-.08-2.06-.84-1.64c.18-.91.58-1.69,1.22-2.32l2.36-1.26,1.41-.91c.71.2,1.2.44,1.47.72.27.28.4.74.4,1.37v1.26c0,.94.2,1.41.61,1.41h.15l1.94-1.03,1.9-.72,3.28-1.79,1.07-.46.88.23,1.71-.53c.99-.3,1.74-.46,2.25-.46l1.64.15c.51.71.93,1.07,1.26,1.07.05-.02.09-.04.11-.06s.06-.02.11-.02l.88-.46c.2-.1.36-.15.46-.15.63,0,1.23.34,1.79,1.03.41.48.61.91.61,1.29l.04.02Z"/>
  <path class="cls-2" d="M357.52,123.66s.06.05.08.09.03.08.04.13c.03.3-.23.66-.78,1.09v.8c.18,1.54.88,2.74,2.1,3.6.76.58,2.1,1.08,4.02,1.5s3.44.57,4.54.44c.31-.04.77-.16,1.38-.39l1.48-.7,2.77-.73c.47-.21,1.12-.64,1.97-1.3l3-2.49,1.89-2.02,1.71-1.24c-.13-.91-.25-1.83-.34-2.75l-1.62,1.75-2.78,2.19-1.63,1.3-3.96,1.67-1.31,1.03-.34.04-.62-.16-1.28-1.04-2.53-.56-1.44-1.68-.67-.61-.32-.58.08-2.31.35-7.97c-1.17.13-1.78-.11-1.85-.71-.05-.43.15-.74.58-.95l1.29-.45c.3-.11.51-.36.61-.76l-.03-2.6.57-4.47.28-2.91,1-3.03-.03-.23c-.05-.48-.23-.86-.52-1.13s-.65-.39-1.08-.34l-.26.03-4.02,2.64-1.45.55-.95.41-1.39,1.81.2.63,1.21.02c.49.48.75.9.79,1.25l-.48,3.04.24,2.92c-.05.62-.12,1.27-.21,1.94l-.5,2.85c-.12.99-.16,1.62-.13,1.89l.06.49.49,1.29-1.28,3.59-.14,1.01.21,1.09,1.02,1-.02.03Z"/>
  <path class="cls-2" d="M389.59,121.69l-.08-4.99.08-.95c-.81-.74-1.22-1.46-1.22-2.17,0-.15.05-.38.15-.69l.53-1.33-.15-2.44v-.99c0-.25-.1-.61-.3-1.07s-.5-1.14-.88-2.06l-.08-.57.46-1.71v-.99l.34-1.1-.15-2.74.23-1.37v-.19c0-.36-.37-.79-1.1-1.29l-.88.23-2.25.3-1.18,1.1-1.64.53v.61c0,.23.03.39.08.5l1.1,2.25.3,4.61.65,3.35-.27.84.19,1.64-.34.57.34,2.09-.8.95-.15.69-.13.09c-.02,1.82-.07,3.65-.1,5.47l.99-.49.42.57-.65,2.02v.38l.08.88.42,5.29.46,1.79-.61,2.09c-.48,1.07-.72,2.13-.72,3.2l-.08,3.12-.69,3.05.23,1.64-1.41,2.17-.95,3.12c-.43,1.37-.98,2.31-1.64,2.82l-1.79,1.1-2.89,2.97c-.38.43-1.45,1.08-3.2,1.94-1.98.89-3.5,1.33-4.57,1.33l-.88-.11c-.43.33-.77.5-1.03.5-.33,0-.66-.13-.99-.38l-2.67-.19-3.2-1.29-.53.08h-.08c-.25,0-.65-.27-1.18-.8l-1.49-2.32-1.49-2.06-.38-1.07-.46-1.1c-.76.08-1.26.25-1.49.53-.74.96-1.1,1.98-1.1,3.05s.24,1.73.72,2.13l2.02,1.22,1.03,1.41,1.29.3,2.59,1.64c.63.36,1.41.57,2.32.65l1.9.23,3.58.38,3.43-.99,2.4-.88c1.6-.74,2.41-1.1,2.44-1.1l1.64-.46.69-.61,1.18-.72.95-.99.99-.57c.66-.3,1.31-.95,1.94-1.94l1.71-2.55,2.89-3.69,1.1-.69.3-.88,1.33-3.28-.08-1.94.61-1.26.38-1.87.57-1.33-.08-4.04.38-.95-.15-2.93.3-2.06-.76-.91-.15-.57v-.15l1.29-3.58.07-.02Z"/>
  <path class="cls-2" d="M438.28,95.11l-.3.99-1.94,4.15-.8,2.32-1.07,3.43-.5,1.41-1.14,2.67-.57,2.48-1.64,2.59-4.61,10.21-1.22,1.64.53.72-.95.69-2.02,1.1-1.49,1.33c-.23.15-.43.23-.61.23-.15,0-.33-.1-.53-.3-.18-.41-.27-.62-.27-.65l-.46-1.71-.91-.99-1.1-2.59-2.17-4.08-.19-2.09-.08-.84c-.3-.41-.83-.67-1.56-.8.53-.48.8-.84.8-1.07,0-.58-.18-1.08-.55-1.5s-.83-.63-1.39-.63l-.5.08-.69-2.4-.69-1.79-.08-2.21-1.64-1.49-3.12-7.01-.57-.61c.38-.81.75-1.31,1.1-1.49l2.25-1.03.95-.91c.05-.05.15-.08.3-.08l.95.15.84.23.23.76,1.03,2.36.76,4.19,1.41,2.59.65,1.79.76,1.87.15,1.49.88.88.53,2.17,1.94,3.5-.3,1.33.72.53.91.72,1.87,3.81,1.03.46c.25,0,.38-.08.38-.23l1.03-2.17,1.49-2.74,1.71-4.11.69-1.26c.84-.08,1.26-.29,1.26-.65v-.08l-.23-2.48.15-.8,1.79-4.19-.08-2.82,1.26-2.89.53-2.25c.2-.58.69-1.08,1.45-1.49.76-.41,1.55-.61,2.36-.61l1.26.15Z"/>
  <path class="cls-2" d="M486.4,121.58c0,.34-.06.64-.19.92l-.76,1.38-1.79,3.2-1.64.11-1.03.87c-.23.24-.62.4-1.18.48l-6.86,1.38-1.07.4-2.44-.24-3.5.31-3.96-.24h-1.1c-.56-.45-.9-.72-1.03-.79l-3.73-1.38-1.26-1.23-2.48-1.78-1.98-2.74-.76-.68c.3-.63.46-1.21.46-1.71,0-.21-.05-.37-.15-.48l-1.03-1.71-.23-2.26-.08-1.82c0-.6.14-1.41.42-2.41.43-1.58.79-2.54,1.07-2.85l1.41-1.86.72-1.71,1.79-1.78,1.94-2.65,1.71-.99,2.48-1.78,1.64-1.14.57-.4,1.14-.24,3.47-1.14,2.7-.31,1.64-.72.8-.08c1.29,0,2.39.73,3.28,2.17.48-.05.84-.33,1.07-.83l1.03.92,1.41.79,3.2,3.24c.41.53.72.99.93,1.36.21.38,2.43,2.87,2.65,3.29.22.43.41.88.57,1.38.16.5.41,1.27.74,2.3l.3.99-.38.16-1.49-.31-1.64.55-1.26-.24-1.41.4-2.67-.31-2.55.16-2.67-.48-4.34.08-2.13-.08-5.14.72-1.87-.08-2.59.79-.91.2-.15.95c-.05.66-2.14-.97-2.27-.74s-.41.52-.84.83l.08.75c.84.66,1.28,1.07,1.33,1.23l.99,4.04.5.99c-.25.26-.38.5-.38.72.03.05.05.1.08.16l1.45.48.34.99c.25.93.58,1.49.99,1.71l2.06.87.69,1.55c.36.19.93.33,1.71.44l.53,1.03,1.18.16,3.28,1.23,2.74-.55,7.24-1.23,1.56-.99,2.44-1.55,2.02-2.74c.36-.45.77-.68,1.26-.68.89,0,1.33.41,1.33,1.23v.03ZM479.41,105c0-.43-2.47-3.39-3.41-4.73l-2.63-1.98-.88-.95-1.26-.08-2.89-.24-.69.16-1.64.95-2.09.52-2.67,1.03-1.03.4-1.22,1.9c-.76.55-1.18.89-1.26,1.03l-.15.48,6.68,2.43.53-.08.88-.28.84.2,2.25.48h.11l2.55-.48.8-.2.61.92h.88l3.35-.72,1.37.16c.63-.08.95-.38.95-.92h.02Z"/>
  <path class="cls-4" d="M50.55,27.02l-.61-1.58c-.06-.17.63-.67.73-.73l-1.45-1.51-1.64-2.21c-.14-.19-.53-1.06-.58-1.29l-.34-1.41-.36-1.44-.34-1.41c-.04-.17-.16-.85-.13-1.01l.29-1.64.55-.91-.04-1.72c0-.09.03-.28.07-.33l.63-.74.73-.86.69-.81c.15-.18.79-.69,1.02-.65l1.13.25c.04.1-.24-.6-.37-.9-.14-.33.49-1.23.81-1.56.75-.75,2.29,1.48,2.17,2.63l-.16,1.61-.17,1.73-.83-.31-.54.26,1.07,2.25c.08.18-.03.9-.06,1.09l-.18.96-.14,1.27v1.65s-.14,1.45-.14,1.45l.07,1.59.06,1.31.12,1.09.1,1.05v.93s-.03,1.05-.03,1.05l.03.89.17,1.56c.03.25-.08.93-.14,1.32l-1.49-1.78c-.19-.22-.58-.84-.68-1.11Z"/>
  <path class="cls-1" d="M174.6,94.7c-.37-.52-.67-1.26-.9-2.22-.21-.97-.69-2.22-1.14-3.75.32-6.39-1.23-12.44-3.9-17.3-1.16-1.92-2.38-3.82-3.71-5.64-1.42,1.14-2.91,2.08-4.43,2.73-.52.22-1.04.43-1.56.65.26.29.51.58.78.86.64.89,1.04,1.88,1.53,2.75.45.89.93,1.7,1.28,2.53.65,1.68,1.34,3.12,1.79,4.45.42,1.34.79,2.49,1.12,3.45.31.96.45,1.78.64,2.39l.24.43c.33,1.08.68,2.17.85,3.29l.65,3.35c.18,2.26.54,4.52.42,6.81,0,6.71-1.47,13.45-4.23,19.62-2.39,4.56-5.39,8.79-9.09,12.31-4.68,5.66-10.85,10.18-17.74,13.26l-1.46.27c-.49.06-.99.09-1.49.14l-2.93.24c-.89.24-1.81.34-2.71.52-.91.14-1.81.37-2.73.43-6.88.59-13.81-.34-20.24-2.62-3.7-1.22-7.23-2.91-10.49-5-.36.75-.71,1.5-1.06,2.27-.78,1.75-1.82,3.36-3.03,4.86.12.07.23.16.35.23,1.13.64,2.14,1.34,3.14,1.92,1.01.56,3.29-.33,4.14.25.42.29.83.59,1.22.89.39.3.79.54,1.15.82.74.54,1.4,1.11,1.99,1.69,1.79.66,3.67,1.01,5.53,1.42l1.4.3.7.14.71.09,2.84.32c2.21.32,4.45.19,6.67.24.67.05,1.35.03,2.01,0l2.02-.09,2.03-.1c.67-.05,1.34-.18,2.01-.26,3.38-.66,6.67-1.69,9.83-2.96l3.53-1.23c1.16-.46,2.27-1.02,3.42-1.53l1.42-.88c.47-.29.9-.65,1.36-.98l2.65-2c1.31-.52,2.51-1.27,3.75-2.02.6-.4,1.24-.76,1.8-1.24.56-.47,1.12-.96,1.66-1.47.72-.69,1.48-1.35,2.17-2.07l1.99-2.24c1.39-1.46,2.5-3.12,3.69-4.74.34-.47.67-.92.99-1.4l.86-1.48,1.72-2.96c.52-1.02.96-2.07,1.44-3.11.45-1.04,1-2.06,1.32-3.15l.53-3.77.13-.93.04-.94.08-1.88c.22-.84.41-1.61.6-2.32.21-.71.25-1.39.38-1.99.21-1.21.4-2.17.58-2.9l.28-1.08c.08-.36.16-.73.25-1.09.18-.73.41-1.46.68-2.21-.09-1.12-.17-2.23-.41-3.33-.36-.16-.73-.51-1.1-1.03Z"/>
</svg>
